<svg width="406" height="67" viewBox="0 0 406 67" fill="none" xmlns="http://www.w3.org/2000/svg">
<path d="M367.09 19.3848V12.793L367.48 10.0098L370.898 9.47266H380.859L384.18 10.0098L384.668 12.8906V19.3848H367.09Z" fill="#262626"/>
<path fill-rule="evenodd" clip-rule="evenodd" d="M45.5566 1.46484C42.8874 0.488281 39.9089 0 36.6211 0H21.582C18.2943 0 15.3158 0.488281 12.6465 1.46484C9.97721 2.44141 7.69857 3.77604 5.81055 5.46875C3.95508 7.16146 2.52279 9.14714 1.51367 11.4258C0.504557 13.6719 0 16.0645 0 18.6035V48.291C0 50.8301 0.504557 53.2389 1.51367 55.5176C2.52279 57.7637 3.95508 59.7331 5.81055 61.4258C7.69857 63.1185 9.97721 64.4531 12.6465 65.4297C15.3158 66.4062 18.2943 66.8945 21.582 66.8945H36.6211C39.9089 66.8945 42.8874 66.4062 45.5566 65.4297C48.2259 64.4531 50.4883 63.1185 52.3438 61.4258C54.2318 59.7331 55.6803 57.7637 56.6895 55.5176C57.3361 54.0574 57.7755 52.5438 58.0078 50.9768C58.2401 52.5438 58.6795 54.0574 59.3262 55.5176C60.3353 57.7637 61.7676 59.7331 63.623 61.4258C65.5111 63.1185 67.7897 64.4531 70.459 65.4297C73.1283 66.4062 76.1068 66.8945 79.3945 66.8945H94.4336C97.7214 66.8945 100.7 66.4062 103.369 65.4297C106.038 64.4531 108.301 63.1185 110.156 61.4258C112.044 59.7331 113.493 57.7637 114.502 55.5176C115.149 54.0574 115.588 52.5439 115.82 50.9768C116.053 52.5439 116.492 54.0574 117.139 55.5176C118.148 57.7637 119.58 59.7331 121.436 61.4258C123.324 63.1185 125.602 64.4531 128.271 65.4297C130.941 66.4062 133.919 66.8945 137.207 66.8945H152.246C155.534 66.8945 158.512 66.4062 161.182 65.4297C163.851 64.4531 166.113 63.1185 167.969 61.4258C169.857 59.7331 171.305 57.7637 172.314 55.5176C172.961 54.0574 173.401 52.5438 173.633 50.9768C173.865 52.5438 174.305 54.0574 174.951 55.5176C175.96 57.7637 177.393 59.7331 179.248 61.4258C181.136 63.1185 183.415 64.4531 186.084 65.4297C188.753 66.4062 191.732 66.8945 195.02 66.8945H210.059C213.346 66.8945 216.325 66.4062 218.994 65.4297C221.663 64.4531 223.926 63.1185 225.781 61.4258C227.669 59.7331 229.118 57.7637 230.127 55.5176C230.774 54.0574 231.213 52.5438 231.445 50.9768C231.576 50.0983 231.641 49.2031 231.641 48.291V18.6035C231.641 17.6915 231.576 16.7983 231.445 15.9241C231.213 14.3645 230.774 12.8651 230.127 11.4258C229.118 9.14714 227.669 7.16146 225.781 5.46875C223.926 3.77604 221.663 2.44141 218.994 1.46484C216.325 0.488281 213.346 0 210.059 0H195.02C191.732 0 188.753 0.488281 186.084 1.46484C183.415 2.44141 181.136 3.77604 179.248 5.46875C177.393 7.16146 175.96 9.14714 174.951 11.4258C174.305 12.8651 173.865 14.3645 173.633 15.9241C173.401 14.3645 172.961 12.8651 172.314 11.4258C171.305 9.14714 169.857 7.16146 167.969 5.46875C166.113 3.77604 163.851 2.44141 161.182 1.46484C158.512 0.488281 155.534 0 152.246 0H137.207C133.919 0 130.941 0.488281 128.271 1.46484C125.602 2.44141 123.324 3.77604 121.436 5.46875C119.58 7.16146 118.148 9.14714 117.139 11.4258C116.492 12.8651 116.053 14.3645 115.82 15.924C115.588 14.3645 115.149 12.8651 114.502 11.4258C113.493 9.14714 112.044 7.16146 110.156 5.46875C108.301 3.77604 106.038 2.44141 103.369 1.46484C100.7 0.488281 97.7214 0 94.4336 0H79.3945C76.1068 0 73.1283 0.488281 70.459 1.46484C67.7897 2.44141 65.5111 3.77604 63.623 5.46875C61.7676 7.16146 60.3353 9.14714 59.3262 11.4258C58.6795 12.8651 58.2401 14.3645 58.0078 15.924C57.7755 14.3645 57.3361 12.8651 56.6895 11.4258C55.6803 9.14714 54.2318 7.16146 52.3438 5.46875C50.4883 3.77604 48.2259 2.44141 45.5566 1.46484ZM17.6758 4.39453H45.8984V9.57031H34.4238V44.7754H29.1992V9.57031H17.6758V4.39453ZM96.9238 44.7754V32.7148L96.1914 30.0781L92.7246 28.5156H80.0293V44.7754H74.8047V4.39453H93.0176L97.9004 5.07812L101.123 9.17969L101.709 13.2812V18.7012L100.195 23.0957L94.8242 25.6836L100.391 27.6855L102.1 32.1777V44.7754H96.9238ZM133.301 44.7754V39.5996H144.824V9.57031H133.301V4.39453H161.523V9.57031H150.049V39.5996H161.523V44.7754H133.301ZM218.359 8.20312L219.043 12.3047V22.5098L218.359 26.709L215.234 29.7852L210.254 30.3711H197.119V44.7754H192.041V4.39453H210.254L215.234 5.07812L218.359 8.20312Z" fill="#16A34A"/>
<path d="M92.7246 9.57031L96.1914 11.084L96.5332 13.916V19.0918L95.8008 21.7773L92.7246 23.291H80.0293V9.57031H92.7246Z" fill="#16A34A"/>
<path d="M213.135 24.707L209.961 25.1953H197.119V9.57031H209.961L213.33 10.1074L213.818 12.9883V21.9727L213.135 24.707Z" fill="#16A34A"/>
<path fill-rule="evenodd" clip-rule="evenodd" d="M219.043 12.3047L218.359 8.20312L215.234 5.07812L210.254 4.39453H192.041V44.7754H197.119V30.3711H210.254L215.234 29.7852L218.359 26.709L219.043 22.5098V12.3047ZM209.961 25.1953L213.135 24.707L213.818 21.9727V12.9883L213.33 10.1074L209.961 9.57031H197.119V25.1953H209.961Z" fill="white"/>
<path d="M133.301 39.5996V44.7754H161.523V39.5996H150.049V9.57031H161.523V4.39453H133.301V9.57031H144.824V39.5996H133.301Z" fill="white"/>
<path fill-rule="evenodd" clip-rule="evenodd" d="M96.9238 32.7148V44.7754H102.1V32.1777L100.391 27.6855L94.8242 25.6836L100.195 23.0957L101.709 18.7012V13.2812L101.123 9.17969L97.9004 5.07812L93.0176 4.39453H74.8047V44.7754H80.0293V28.5156H92.7246L96.1914 30.0781L96.9238 32.7148ZM96.1914 11.084L92.7246 9.57031H80.0293V23.291H92.7246L95.8008 21.7773L96.5332 19.0918V13.916L96.1914 11.084Z" fill="white"/>
<path d="M45.8984 4.39453H17.6758V9.57031H29.1992V44.7754H34.4238V9.57031H45.8984V4.39453Z" fill="white"/>
<path fill-rule="evenodd" clip-rule="evenodd" d="M231.641 18.6035V48.291C231.641 49.2031 231.576 50.0983 231.445 50.9768C231.678 52.5438 232.117 54.0574 232.764 55.5176C233.773 57.7637 235.205 59.7331 237.061 61.4258C238.949 63.1185 241.227 64.4531 243.896 65.4297C246.566 66.4062 249.544 66.8945 252.832 66.8945H267.871C271.159 66.8945 274.137 66.4062 276.807 65.4297C279.476 64.4531 281.738 63.1185 283.594 61.4258C285.482 59.7331 286.93 57.7637 287.939 55.5176C288.586 54.0575 289.026 52.5439 289.258 50.9768C289.49 52.5439 289.93 54.0575 290.576 55.5176C291.585 57.7637 293.018 59.7331 294.873 61.4258C296.761 63.1185 299.04 64.4531 301.709 65.4297C304.378 66.4062 307.357 66.8945 310.645 66.8945H325.684C328.971 66.8945 331.95 66.4062 334.619 65.4297C337.288 64.4531 339.551 63.1185 341.406 61.4258C343.294 59.7331 344.743 57.7637 345.752 55.5176C346.399 54.0575 346.838 52.5439 347.07 50.9768C347.303 52.5439 347.742 54.0575 348.389 55.5176C349.398 57.7637 350.83 59.7331 352.686 61.4258C354.574 63.1185 356.852 64.4531 359.521 65.4297C362.191 66.4062 365.169 66.8945 368.457 66.8945H383.496C386.784 66.8945 389.762 66.4062 392.432 65.4297C395.101 64.4531 397.363 63.1185 399.219 61.4258C401.107 59.7331 402.555 57.7637 403.564 55.5176C404.574 53.2389 405.078 50.8301 405.078 48.291V18.6035C405.078 16.0645 404.574 13.6719 403.564 11.4258C402.555 9.14714 401.107 7.16146 399.219 5.46875C397.363 3.77604 395.101 2.44141 392.432 1.46484C389.762 0.488281 386.784 0 383.496 0H368.457C365.169 0 362.191 0.488281 359.521 1.46484C356.852 2.44141 354.574 3.77604 352.686 5.46875C350.83 7.16146 349.398 9.14714 348.389 11.4258C347.742 12.865 347.303 14.3645 347.07 15.924C346.838 14.3645 346.399 12.865 345.752 11.4258C344.743 9.14714 343.294 7.16146 341.406 5.46875C339.551 3.77604 337.288 2.44141 334.619 1.46484C331.95 0.488281 328.971 0 325.684 0H310.645C307.357 0 304.378 0.488281 301.709 1.46484C299.04 2.44141 296.761 3.77604 294.873 5.46875C293.018 7.16146 291.585 9.14714 290.576 11.4258C289.93 12.865 289.49 14.3645 289.258 15.924C289.026 14.3645 288.586 12.865 287.939 11.4258C286.93 9.14714 285.482 7.16146 283.594 5.46875C281.738 3.77604 279.476 2.44141 276.807 1.46484C274.137 0.488281 271.159 0 267.871 0H252.832C249.544 0 246.566 0.488281 243.896 1.46484C241.227 2.44141 238.949 3.77604 237.061 5.46875C235.205 7.16146 233.773 9.14714 232.764 11.4258C232.117 12.8651 231.678 14.3645 231.445 15.9241C231.576 16.7983 231.641 17.6915 231.641 18.6035ZM276.172 8.20312L276.855 12.3047V22.5098L276.172 26.709L273.047 29.7852L268.066 30.3711H254.932V44.7754H249.854V4.39453H268.066L273.047 5.07812L276.172 8.20312ZM306.738 44.7754V39.5996H318.262V9.57031H306.738V4.39453H334.961V9.57031H323.486V39.5996H334.961V44.7754H306.738ZM389.16 8.10547L389.893 12.207V24.5117H367.09V34.5703L367.773 37.5L370.898 37.9883H382.764L387.354 37.207L388.574 42.4805L382.861 43.2129H370.557L365.674 42.5781L362.598 39.502L361.865 35.4004V12.207L362.598 8.10547L365.674 4.98047L370.557 4.39453H381.152L386.084 4.98047L389.16 8.10547Z" fill="#262626"/>
<path d="M270.947 24.707L267.773 25.1953H254.932V9.57031H267.773L271.143 10.1074L271.631 12.9883V21.9727L270.947 24.707Z" fill="#262626"/>
<path fill-rule="evenodd" clip-rule="evenodd" d="M276.855 12.3047L276.172 8.20312L273.047 5.07812L268.066 4.39453H249.854V44.7754H254.932V30.3711H268.066L273.047 29.7852L276.172 26.709L276.855 22.5098V12.3047ZM267.773 25.1953L270.947 24.707L271.631 21.9727V12.9883L271.143 10.1074L267.773 9.57031H254.932V25.1953H267.773Z" fill="white"/>
<path d="M306.738 39.5996V44.7754H334.961V39.5996H323.486V9.57031H334.961V4.39453H306.738V9.57031H318.262V39.5996H306.738Z" fill="white"/>
<path fill-rule="evenodd" clip-rule="evenodd" d="M367.09 19.3848V12.793L367.48 10.0098L370.898 9.47266H380.859L384.18 10.0098L384.668 12.8906V19.3848H367.09Z" fill="#262626"/>
<path fill-rule="evenodd" clip-rule="evenodd" d="M389.893 12.207L389.16 8.10547L386.084 4.98047L381.152 4.39453H370.557L365.674 4.98047L362.598 8.10547L361.865 12.207V35.4004L362.598 39.502L365.674 42.5781L370.557 43.2129H382.861L388.574 42.4805L387.354 37.207L382.764 37.9883H370.898L367.773 37.5L367.09 34.5703V24.5117H389.893V12.207ZM367.09 12.793V19.3848H384.668V12.8906L384.18 10.0098L380.859 9.47266H370.898L367.48 10.0098L367.09 12.793Z" fill="white"/>
</svg>
