<svg width="59" height="67" viewBox="0 0 59 67" fill="none" xmlns="http://www.w3.org/2000/svg">
<path d="M45.8984 4.39453H17.6758V9.57031H29.1992V44.7754H34.4238V9.57031H45.8984V4.39453Z" fill="#16A34A"/>
<path d="M45.8984 4.39453H17.6758V9.57031H29.1992V44.7754H34.4238V9.57031H45.8984V4.39453Z" fill="white"/>
<path fill-rule="evenodd" clip-rule="evenodd" d="M36.6211 0C39.9089 0 42.8874 0.488281 45.5566 1.46484C48.2259 2.44141 50.4883 3.77604 52.3438 5.46875C54.2318 7.16146 55.6803 9.14714 56.6895 11.4258C57.6986 13.6719 58.2031 16.0645 58.2031 18.6035V48.291C58.2031 50.8301 57.6986 53.2389 56.6895 55.5176C55.6803 57.7637 54.2318 59.7331 52.3438 61.4258C50.4883 63.1185 48.2259 64.4531 45.5566 65.4297C42.8874 66.4062 39.9089 66.8945 36.6211 66.8945H21.582C18.2943 66.8945 15.3158 66.4062 12.6465 65.4297C9.97721 64.4531 7.69857 63.1185 5.81055 61.4258C3.95508 59.7331 2.52279 57.7637 1.51367 55.5176C0.504557 53.2389 0 50.8301 0 48.291V18.6035C0 16.0645 0.504557 13.6719 1.51367 11.4258C2.52279 9.14714 3.95508 7.16146 5.81055 5.46875C7.69857 3.77604 9.97721 2.44141 12.6465 1.46484C15.3158 0.488281 18.2943 0 21.582 0H36.6211ZM17.6758 4.39453H45.8984V9.57031H34.4238V44.7754H29.1992V9.57031H17.6758V4.39453Z" fill="white"/>
<path fill-rule="evenodd" clip-rule="evenodd" d="M36.6211 0C39.9089 0 42.8874 0.488281 45.5566 1.46484C48.2259 2.44141 50.4883 3.77604 52.3438 5.46875C54.2318 7.16146 55.6803 9.14714 56.6895 11.4258C57.6986 13.6719 58.2031 16.0645 58.2031 18.6035V48.291C58.2031 50.8301 57.6986 53.2389 56.6895 55.5176C55.6803 57.7637 54.2318 59.7331 52.3438 61.4258C50.4883 63.1185 48.2259 64.4531 45.5566 65.4297C42.8874 66.4062 39.9089 66.8945 36.6211 66.8945H21.582C18.2943 66.8945 15.3158 66.4062 12.6465 65.4297C9.97721 64.4531 7.69857 63.1185 5.81055 61.4258C3.95508 59.7331 2.52279 57.7637 1.51367 55.5176C0.504557 53.2389 0 50.8301 0 48.291V18.6035C0 16.0645 0.504557 13.6719 1.51367 11.4258C2.52279 9.14714 3.95508 7.16146 5.81055 5.46875C7.69857 3.77604 9.97721 2.44141 12.6465 1.46484C15.3158 0.488281 18.2943 0 21.582 0H36.6211ZM17.6758 4.39453H45.8984V9.57031H34.4238V44.7754H29.1992V9.57031H17.6758V4.39453Z" fill="#16A34A"/>
</svg>
